<svg width="17" height="17" viewBox="0 0 17 17" fill="none" xmlns="http://www.w3.org/2000/svg">
<g clip-path="url(#clip0)">
<path d="M13.6993 16.5H3.29932C2.97265 16.5 2.66198 16.3594 2.44732 16.1134C2.23198 15.8674 2.13265 15.5414 2.17598 15.2174L3.56265 4.81737C3.63732 4.25604 4.12065 3.83337 4.68598 3.83337H12.3126C12.8786 3.83337 13.3613 4.25604 13.4367 4.81737L14.8233 15.2174C14.866 15.5414 14.7673 15.868 14.552 16.1134C14.3367 16.3594 14.026 16.5 13.6993 16.5ZM4.68598 4.50004C4.45265 4.50004 4.25465 4.67404 4.22398 4.90471L2.83732 15.3047C2.81932 15.44 2.85865 15.5707 2.94865 15.674C3.03865 15.7767 3.16265 15.8334 3.29932 15.8334H13.6993C13.836 15.8334 13.9607 15.7767 14.05 15.674C14.14 15.5714 14.1793 15.44 14.1613 15.3047L12.7747 4.90471C12.744 4.67404 12.5453 4.50004 12.3126 4.50004H4.68598Z" fill="white"/>
<path d="M10.1667 5.83333C9.98267 5.83333 9.83333 5.684 9.83333 5.5V2.5C9.83333 1.76467 9.23533 1.16667 8.5 1.16667C7.76467 1.16667 7.16667 1.76467 7.16667 2.5V5.5C7.16667 5.684 7.01733 5.83333 6.83333 5.83333C6.64933 5.83333 6.5 5.684 6.5 5.5V2.5C6.5 1.39733 7.39733 0.5 8.5 0.5C9.60267 0.5 10.5 1.39733 10.5 2.5V5.5C10.5 5.684 10.3507 5.83333 10.1667 5.83333Z" fill="white"/>
</g>
<defs>
<clipPath id="clip0">
<rect width="16" height="16" fill="white" transform="translate(0.5 0.5)"/>
</clipPath>
</defs>
</svg>
