<svg width="36" height="36" viewBox="0 0 36 36" fill="none" xmlns="http://www.w3.org/2000/svg">
<g clip-path="url(#clip0)">
<path d="M20 33C11.7155 33 5 26.2845 5 18C5 9.7155 11.7155 3 20 3C28.2845 3 35 9.7155 35 18C35 26.2845 28.2845 33 20 33ZM12.5195 27.384C14.6428 29.0815 17.2815 30.0043 20 30C22.955 30 25.6595 28.932 27.7505 27.162C26.7736 26.1596 25.6056 25.3633 24.3156 24.8202C23.0255 24.2771 21.6397 23.9982 20.24 24C18.7889 23.9983 17.3533 24.2983 16.0242 24.8808C14.6951 25.4634 13.5017 26.3158 12.5195 27.384ZM10.424 25.23C11.6847 23.8921 13.206 22.8266 14.8942 22.0991C16.5824 21.3716 18.4017 20.9975 20.24 21C22.0125 20.9977 23.768 21.3455 25.4056 22.0236C27.0433 22.7016 28.5309 23.6965 29.783 24.951C31.0671 23.1437 31.8254 21.016 31.9738 18.8039C32.1223 16.5918 31.6549 14.3818 30.6237 12.4192C29.5925 10.4565 28.0378 8.81793 26.132 7.68517C24.2261 6.5524 22.0437 5.96976 19.8269 6.00188C17.6101 6.034 15.4455 6.67963 13.5733 7.86714C11.7011 9.05464 10.1944 10.7376 9.22054 12.7293C8.24664 14.721 7.84354 16.9436 8.05597 19.1504C8.26841 21.3573 9.08806 23.4621 10.424 25.2315V25.23ZM20 19.5C18.4087 19.5 16.8826 18.8679 15.7574 17.7426C14.6321 16.6174 14 15.0913 14 13.5C14 11.9087 14.6321 10.3826 15.7574 9.25736C16.8826 8.13214 18.4087 7.5 20 7.5C21.5913 7.5 23.1174 8.13214 24.2426 9.25736C25.3679 10.3826 26 11.9087 26 13.5C26 15.0913 25.3679 16.6174 24.2426 17.7426C23.1174 18.8679 21.5913 19.5 20 19.5ZM20 16.5C20.7956 16.5 21.5587 16.1839 22.1213 15.6213C22.6839 15.0587 23 14.2956 23 13.5C23 12.7044 22.6839 11.9413 22.1213 11.3787C21.5587 10.8161 20.7956 10.5 20 10.5C19.2044 10.5 18.4413 10.8161 17.8787 11.3787C17.3161 11.9413 17 12.7044 17 13.5C17 14.2956 17.3161 15.0587 17.8787 15.6213C18.4413 16.1839 19.2044 16.5 20 16.5Z" fill="black"/>
</g>
<defs>
<clipPath id="clip0">
<rect width="36" height="36" fill="white"/>
</clipPath>
</defs>
</svg>
